<svg width="150" height="46" viewBox="0 0 150 46" fill="none" xmlns="http://www.w3.org/2000/svg">
<path d="M49.1094 13.4883C48.9336 14.9922 48.377 16.1543 47.4395 16.9746C46.5085 17.7884 45.2682 18.1953 43.7188 18.1953C42.0391 18.1953 40.6914 17.5931 39.6758 16.3887C38.6667 15.1842 38.1621 13.5729 38.1621 11.5547V10.1875C38.1621 8.86589 38.3965 7.70378 38.8652 6.70117C39.3405 5.69857 40.0111 4.93034 40.877 4.39648C41.7428 3.85612 42.7454 3.58594 43.8848 3.58594C45.3952 3.58594 46.6061 4.00911 47.5176 4.85547C48.429 5.69531 48.9596 6.86068 49.1094 8.35156H47.2246C47.0618 7.21875 46.707 6.39844 46.1602 5.89062C45.6198 5.38281 44.8613 5.12891 43.8848 5.12891C42.6868 5.12891 41.7461 5.57161 41.0625 6.45703C40.3854 7.34245 40.0469 8.60221 40.0469 10.2363V11.6133C40.0469 13.1562 40.3691 14.3835 41.0137 15.2949C41.6582 16.2064 42.5599 16.6621 43.7188 16.6621C44.7604 16.6621 45.5579 16.4277 46.1113 15.959C46.6712 15.4837 47.0423 14.6602 47.2246 13.4883H49.1094ZM51.5605 18V7.43359H55.6816C57.0879 7.43359 58.1654 7.68099 58.9141 8.17578C59.6693 8.66406 60.0469 9.38346 60.0469 10.334C60.0469 10.8223 59.9004 11.265 59.6074 11.6621C59.3145 12.0527 58.8815 12.3522 58.3086 12.5605C58.9466 12.7103 59.4577 13.0033 59.8418 13.4395C60.2324 13.8757 60.4277 14.3965 60.4277 15.002C60.4277 15.972 60.0697 16.7142 59.3535 17.2285C58.6439 17.7428 57.638 18 56.3359 18H51.5605ZM53.3672 13.3613V16.5449H56.3555C57.1107 16.5449 57.6738 16.4049 58.0449 16.125C58.4225 15.8451 58.6113 15.4512 58.6113 14.9434C58.6113 13.8887 57.8366 13.3613 56.2871 13.3613H53.3672ZM53.3672 11.916H55.7012C57.3939 11.916 58.2402 11.4212 58.2402 10.4316C58.2402 9.44206 57.4395 8.93099 55.8379 8.89844H53.3672V11.916ZM67.2051 18.1953C65.7728 18.1953 64.6074 17.7266 63.709 16.7891C62.8105 15.8451 62.3613 14.5853 62.3613 13.0098V12.6777C62.3613 11.6296 62.5599 10.6953 62.957 9.875C63.3607 9.04818 63.9206 8.40365 64.6367 7.94141C65.3594 7.47266 66.1406 7.23828 66.9805 7.23828C68.3542 7.23828 69.4219 7.69076 70.1836 8.5957C70.9453 9.50065 71.3262 10.7962 71.3262 12.4824V13.2344H64.168C64.194 14.276 64.4967 15.1191 65.0762 15.7637C65.6621 16.4017 66.4043 16.7207 67.3027 16.7207C67.9408 16.7207 68.4811 16.5905 68.9238 16.3301C69.3665 16.0697 69.7539 15.7246 70.0859 15.2949L71.1895 16.1543C70.304 17.515 68.9759 18.1953 67.2051 18.1953ZM66.9805 8.72266C66.2513 8.72266 65.6393 8.98958 65.1445 9.52344C64.6497 10.0508 64.3438 10.793 64.2266 11.75H69.5195V11.6133C69.4674 10.6953 69.2201 9.98568 68.7773 9.48438C68.3346 8.97656 67.7357 8.72266 66.9805 8.72266ZM81.1602 8.89844H77.6152V18H75.8086V8.89844H72.332V7.43359H81.1602V8.89844ZM82.0293 12.6191C82.0293 11.584 82.2311 10.653 82.6348 9.82617C83.0449 8.99935 83.6113 8.36133 84.334 7.91211C85.0632 7.46289 85.8932 7.23828 86.8242 7.23828C88.263 7.23828 89.4251 7.73633 90.3105 8.73242C91.2025 9.72852 91.6484 11.0534 91.6484 12.707V12.834C91.6484 13.8626 91.4499 14.7871 91.0527 15.6074C90.6621 16.4212 90.099 17.056 89.3633 17.5117C88.6341 17.9674 87.7943 18.1953 86.8438 18.1953C85.4115 18.1953 84.2493 17.6973 83.3574 16.7012C82.472 15.7051 82.0293 14.3867 82.0293 12.7461V12.6191ZM83.8457 12.834C83.8457 14.0059 84.1159 14.9466 84.6562 15.6562C85.2031 16.3659 85.9323 16.7207 86.8438 16.7207C87.7617 16.7207 88.4909 16.3626 89.0312 15.6465C89.5716 14.9238 89.8418 13.9147 89.8418 12.6191C89.8418 11.4603 89.5651 10.5228 89.0117 9.80664C88.4648 9.08398 87.7357 8.72266 86.8242 8.72266C85.9323 8.72266 85.2129 9.07747 84.666 9.78711C84.1191 10.4967 83.8457 11.5124 83.8457 12.834ZM94.0801 18V7.43359H98.2012C99.6074 7.43359 100.685 7.68099 101.434 8.17578C102.189 8.66406 102.566 9.38346 102.566 10.334C102.566 10.8223 102.42 11.265 102.127 11.6621C101.834 12.0527 101.401 12.3522 100.828 12.5605C101.466 12.7103 101.977 13.0033 102.361 13.4395C102.752 13.8757 102.947 14.3965 102.947 15.002C102.947 15.972 102.589 16.7142 101.873 17.2285C101.163 17.7428 100.158 18 98.8555 18H94.0801ZM95.8867 13.3613V16.5449H98.875C99.6302 16.5449 100.193 16.4049 100.564 16.125C100.942 15.8451 101.131 15.4512 101.131 14.9434C101.131 13.8887 100.356 13.3613 98.8066 13.3613H95.8867ZM95.8867 11.916H98.2207C99.9134 11.916 100.76 11.4212 100.76 10.4316C100.76 9.44206 99.959 8.93099 98.3574 8.89844H95.8867V11.916ZM107.312 11.0762H110.057C111.255 11.0892 112.202 11.4017 112.898 12.0137C113.595 12.6257 113.943 13.4557 113.943 14.5039C113.943 15.5586 113.585 16.4049 112.869 17.043C112.153 17.681 111.189 18 109.979 18H105.506V7.43359H107.312V11.0762ZM117.713 18H115.896V7.43359H117.713V18ZM107.312 12.5508V16.5254H109.998C110.675 16.5254 111.199 16.3529 111.57 16.0078C111.941 15.6562 112.127 15.1777 112.127 14.5723C112.127 13.9863 111.945 13.5078 111.58 13.1367C111.222 12.7591 110.717 12.5638 110.066 12.5508H107.312ZM125.252 18.1953C123.82 18.1953 122.654 17.7266 121.756 16.7891C120.857 15.8451 120.408 14.5853 120.408 13.0098V12.6777C120.408 11.6296 120.607 10.6953 121.004 9.875C121.408 9.04818 121.967 8.40365 122.684 7.94141C123.406 7.47266 124.188 7.23828 125.027 7.23828C126.401 7.23828 127.469 7.69076 128.23 8.5957C128.992 9.50065 129.373 10.7962 129.373 12.4824V13.2344H122.215C122.241 14.276 122.544 15.1191 123.123 15.7637C123.709 16.4017 124.451 16.7207 125.35 16.7207C125.988 16.7207 126.528 16.5905 126.971 16.3301C127.413 16.0697 127.801 15.7246 128.133 15.2949L129.236 16.1543C128.351 17.515 127.023 18.1953 125.252 18.1953ZM125.027 8.72266C124.298 8.72266 123.686 8.98958 123.191 9.52344C122.697 10.0508 122.391 10.793 122.273 11.75H127.566V11.6133C127.514 10.6953 127.267 9.98568 126.824 9.48438C126.382 8.97656 125.783 8.72266 125.027 8.72266ZM57.6348 41.1953C56.2025 41.1953 55.0371 40.7266 54.1387 39.7891C53.2402 38.8451 52.791 37.5853 52.791 36.0098V35.6777C52.791 34.6296 52.9896 33.6953 53.3867 32.875C53.7904 32.0482 54.3503 31.4036 55.0664 30.9414C55.7891 30.4727 56.5703 30.2383 57.4102 30.2383C58.7839 30.2383 59.8516 30.6908 60.6133 31.5957C61.375 32.5007 61.7559 33.7962 61.7559 35.4824V36.2344H54.5977C54.6237 37.276 54.9264 38.1191 55.5059 38.7637C56.0918 39.4017 56.834 39.7207 57.7324 39.7207C58.3704 39.7207 58.9108 39.5905 59.3535 39.3301C59.7962 39.0697 60.1836 38.7246 60.5156 38.2949L61.6191 39.1543C60.7337 40.515 59.4056 41.1953 57.6348 41.1953ZM57.4102 31.7227C56.681 31.7227 56.069 31.9896 55.5742 32.5234C55.0794 33.0508 54.7734 33.793 54.6562 34.75H59.9492V34.6133C59.8971 33.6953 59.6497 32.9857 59.207 32.4844C58.7643 31.9766 58.1654 31.7227 57.4102 31.7227ZM67.4004 34.291L69.7441 30.4336H71.8535L68.3965 35.6582L71.9609 41H69.8711L67.4297 37.0449L64.9883 41H62.8887L66.4531 35.6582L62.9961 30.4336H65.0859L67.4004 34.291ZM82.4102 41H80.6035V36.4883H75.75V41H73.9336V30.4336H75.75V35.0137H80.6035V30.4336H82.4102V41ZM84.8418 35.6191C84.8418 34.584 85.0436 33.653 85.4473 32.8262C85.8574 31.9993 86.4238 31.3613 87.1465 30.9121C87.8757 30.4629 88.7057 30.2383 89.6367 30.2383C91.0755 30.2383 92.2376 30.7363 93.123 31.7324C94.015 32.7285 94.4609 34.0534 94.4609 35.707V35.834C94.4609 36.8626 94.2624 37.7871 93.8652 38.6074C93.4746 39.4212 92.9115 40.056 92.1758 40.5117C91.4466 40.9674 90.6068 41.1953 89.6562 41.1953C88.224 41.1953 87.0618 40.6973 86.1699 39.7012C85.2845 38.7051 84.8418 37.3867 84.8418 35.7461V35.6191ZM86.6582 35.834C86.6582 37.0059 86.9284 37.9466 87.4688 38.6562C88.0156 39.3659 88.7448 39.7207 89.6562 39.7207C90.5742 39.7207 91.3034 39.3626 91.8438 38.6465C92.3841 37.9238 92.6543 36.9147 92.6543 35.6191C92.6543 34.4603 92.3776 33.5228 91.8242 32.8066C91.2773 32.084 90.5482 31.7227 89.6367 31.7227C88.7448 31.7227 88.0254 32.0775 87.4785 32.7871C86.9316 33.4967 86.6582 34.5124 86.6582 35.834ZM105.232 30.4336V41H103.416V31.9277H99.8223L99.6074 35.8828C99.4902 37.6992 99.1842 38.998 98.6895 39.7793C98.2012 40.5605 97.4232 40.9674 96.3555 41H95.6328V39.4082L96.1504 39.3691C96.7363 39.304 97.1562 38.9655 97.4102 38.3535C97.6641 37.7415 97.8268 36.6087 97.8984 34.9551L98.0938 30.4336H105.232ZM107.654 35.6191C107.654 34.584 107.856 33.653 108.26 32.8262C108.67 31.9993 109.236 31.3613 109.959 30.9121C110.688 30.4629 111.518 30.2383 112.449 30.2383C113.888 30.2383 115.05 30.7363 115.936 31.7324C116.827 32.7285 117.273 34.0534 117.273 35.707V35.834C117.273 36.8626 117.075 37.7871 116.678 38.6074C116.287 39.4212 115.724 40.056 114.988 40.5117C114.259 40.9674 113.419 41.1953 112.469 41.1953C111.036 41.1953 109.874 40.6973 108.982 39.7012C108.097 38.7051 107.654 37.3867 107.654 35.7461V35.6191ZM109.471 35.834C109.471 37.0059 109.741 37.9466 110.281 38.6562C110.828 39.3659 111.557 39.7207 112.469 39.7207C113.387 39.7207 114.116 39.3626 114.656 38.6465C115.197 37.9238 115.467 36.9147 115.467 35.6191C115.467 34.4603 115.19 33.5228 114.637 32.8066C114.09 32.084 113.361 31.7227 112.449 31.7227C111.557 31.7227 110.838 32.0775 110.291 32.7871C109.744 33.4967 109.471 34.5124 109.471 35.834ZM126.365 31.9277H121.492V41H119.676V30.4336H126.365V31.9277ZM134.773 30.4336H136.58V41H134.773V33.2949L129.9 41H128.094V30.4336H129.9V38.1484L134.773 30.4336ZM146.316 30.4336H148.123V41H146.316V33.2949L141.443 41H139.637V30.4336H141.443V38.1484L146.316 30.4336Z" fill="white"/>
<rect x="25.5" y="4.5" width="9" height="36" stroke="white"/>
<path d="M35 4L12 4V14H25.5" stroke="white"/>
<path d="M25 4H35V14L25 4Z" fill="white"/>
<path d="M0.499969 4.5H9.49997V39.8773L0.499969 31.7773V4.5Z" stroke="white"/>
<path d="M22.5 40.5H9.71466L1.16466 31.5H22.5V40.5Z" stroke="white"/>
<rect x="47.5" y="27.5" width="1" height="13" stroke="white"/>
<rect x="41.5" y="28.5" width="1" height="6" transform="rotate(-90 41.5 28.5)" stroke="white"/>
</svg>
